<?xml version="1.0"?>
<svg xmlns="http://www.w3.org/2000/svg" height="512px" viewBox="-35 0 512 512.00023" width="512px" class=""><g><path d="m441.183594 225.84375c0-6.980469-.441406-14.019531-1.308594-20.914062-.527344-4.167969-4.320312-7.125-8.496094-6.59375-4.167968.523437-7.117187 4.328124-6.59375 8.496093.789063 6.265625 1.191406 12.664063 1.191406 19.011719 0 29.453125-8.5625 58.132812-24.871093 83.746094-1.308594-2.386719-2.832031-4.683594-4.582031-6.84375-8.710938-10.757813-21.648438-16.925782-35.488282-16.925782-18.292968 0-34.324218 10.863282-41.566406 26.777344-1.632812-2.570312-3.476562-5.023437-5.523438-7.335937-10.953124-12.355469-26.703124-19.441407-43.214843-19.441407-21.441407 0-40.179688 11.753907-50.136719 29.152344-9.957031-17.398437-28.695312-29.152344-50.136719-29.152344-16.511719 0-32.261719 7.085938-43.214843 19.441407-2.046876 2.3125-3.890626 4.765625-5.523438 7.335937-7.242188-15.914062-23.273438-26.777344-41.566406-26.777344-13.84375 0-26.777344 6.167969-35.488282 16.925782-1.75 2.164062-3.273437 4.457031-4.582031 6.847656-16.3125-25.617188-24.871093-54.296875-24.871093-83.75 0-21.304688 4.386718-41.972656 13.023437-61.601562 7.367187 6.304687 17.421875 9.738281 29.335937 9.738281 20.4375 0 34.257813-7.933594 45.363282-14.308594 13.992187-8.03125 23.238281-13.339844 41.425781-4.722656 14.601563 6.914062 20.566406 20.640625 26.878906 35.171875 8.34375 19.214844 17.804688 40.992187 49.355469 40.992187 31.546875 0 41.007812-21.777343 49.351562-40.992187 6.316407-14.53125 12.277344-28.257813 26.882813-35.175782 18.183594-8.613281 27.429687-3.308593 41.421875 4.726563 11.105469 6.375 24.925781 14.308594 45.363281 14.308594 11.917969 0 21.972657-3.4375 29.339844-9.742188 1.789063 4.070313 3.40625 8.199219 4.824219 12.351563 1.078125 3.160156 4.03125 5.148437 7.195312 5.148437.8125 0 1.644532-.132812 2.457032-.410156 3.976562-1.359375 6.097656-5.683594 4.738281-9.65625-2.511719-7.351563-5.574219-14.628906-9.109375-21.683594.132812-.335937.289062-.652343.414062-.996093 8.554688-23.066407-3.738281-53.296876-31.320312-77.015626-6.472656-5.566406-13.324219-10.839843-20.441406-15.746093 4.476562-7.117188 5.441406-16.265625 1.753906-24.5-2.839844-6.339844-7.976563-11.195313-14.464844-13.667969-6.488281-2.476562-13.554688-2.277344-19.894531.5625l-21.222657 9.5c-30.6875-11.636719-63.394531-17.550781-97.289062-17.550781-20.320312 0-40.441406 2.167969-59.933594 6.449219-1.835937-5.015626-5.222656-9.511719-10-12.6875-11.945312-7.933594-28.113281-4.671876-36.050781 7.269531l-19.34375 29.117187c-16.648437 8.703125-32.203125 19.199219-46.230469 31.253906-27.582031 23.71875-39.875 53.949219-31.324218 77.015626.128906.347656.285156.671874.421874 1.011718-12.023437 23.945313-18.132812 49.4375-18.132812 75.84375 0 36.550782 11.949219 71.957032 34.578125 102.585938-.273437 4.148437.019531 8.367187.90625 12.546875l35.085937 164.996093c.746094 3.511719 3.847657 6.023438 7.4375 6.023438h285.167969c3.589844 0 6.691407-2.511719 7.4375-6.023438l35.085938-164.996093c.886719-4.179688 1.179687-8.398438.90625-12.550781 22.632812-30.628907 34.578125-66.03125 34.578125-102.585938zm-95.859375-193.339844c1.410156-.632812 2.90625-.949218 4.40625-.949218 1.296875 0 2.597656.238281 3.851562.714843 2.691407 1.027344 4.824219 3.042969 6.003907 5.675781 2.433593 5.429688-.007813 11.828126-5.441407 14.261719l-48.699219 21.800781c-2.628906 1.179688-5.5625 1.261719-8.257812.234376-2.691406-1.03125-4.824219-3.042969-6.003906-5.675782-2.433594-5.433594.007812-11.832031 5.441406-14.261718zm-218.042969-12.484375c2.074219-3.125 5.507812-4.816406 9.003906-4.816406 2.054688 0 4.125.582031 5.957032 1.800781 4.960937 3.292969 6.3125 10.003906 3.019531 14.964844l-29.527344 44.4375c-1.59375 2.402344-4.03125 4.039062-6.855469 4.609375-2.824218.570313-5.707031.003906-8.105468-1.589844-4.960938-3.296875-6.3125-10.007812-3.019532-14.964843zm-68.332031 63.492188c6.964843-5.988281 14.339843-11.5625 22.050781-16.703125-1.335938 9.59375 2.761719 19.574218 11.355469 25.285156 4.316406 2.867188 9.269531 4.351562 14.335937 4.351562 1.726563 0 3.464844-.175781 5.195313-.523437 6.804687-1.371094 12.671875-5.3125 16.515625-11.097656l29.527344-44.441407c1.660156-2.503906 2.824218-5.191406 3.527343-7.949218 19.1875-4.414063 39.054688-6.652344 59.136719-6.652344 26.601562 0 52.417969 3.84375 76.988281 11.429688l-7.171875 3.210937c-13.085937 5.859375-18.964844 21.269531-13.105468 34.355469 2.835937 6.339844 7.972656 11.195312 14.460937 13.671875 3.011719 1.148437 6.148437 1.722656 9.277344 1.71875 3.613281 0 7.222656-.761719 10.617187-2.28125l47.960938-21.472657c7.917968 5.246094 15.507812 10.980469 22.617187 17.09375 25.820313 22.203126 32.152344 46.230469 26.976563 60.195313-3.605469 9.714844-12.695313 15.066406-25.597656 15.066406-16.386719 0-27.269532-6.246093-37.792969-12.289062-14.816407-8.503907-30.132813-17.296875-55.507813-5.277344-19.765625 9.359375-27.496094 27.15625-34.316406 42.859375-8.835938 20.335938-14.835938 31.839844-35.40625 31.839844s-26.570312-11.503906-35.40625-31.839844c-6.820312-15.703125-14.554688-33.5-34.316406-42.859375-25.371094-12.019531-40.691406-3.226563-55.507813 5.277344-10.523437 6.042969-21.40625 12.289062-37.792969 12.289062-12.902343 0-21.992187-5.351562-25.597656-15.066406-5.175781-13.960937 1.15625-37.992187 26.976563-60.191406zm25.21875 413.277343-33.804688-158.96875c-1.917969-9.03125.3125-18.328124 6.121094-25.503906 5.808594-7.171875 14.4375-11.289062 23.671875-11.289062 15.386719 0 28.386719 11.519531 30.234375 26.796875l8.253906 68.199219c.507813 4.171874 4.285157 7.140624 8.464844 6.636718 4.167969-.503906 7.140625-4.292968 6.632813-8.460937l-5.507813-45.523438v-.003906c-1.464844-12.074219 2.324219-24.21875 10.390625-33.320313 8.066406-9.101562 19.667969-14.320312 31.832031-14.320312 23.453125 0 42.535157 19.078125 42.535157 42.53125v153.226562h-66.828126l-8.90625-73.574218c-.507812-4.167969-4.289062-7.140625-8.464843-6.632813-4.167969.503907-7.140625 4.292969-6.632813 8.460938l8.683594 71.75h-46.675781zm144.03125-153.230468c0-23.453125 19.078125-42.53125 42.53125-42.53125 12.160156 0 23.765625 5.21875 31.832031 14.320312 8.066406 9.105469 11.855469 21.25 10.390625 33.324219l-15.792969 130.46875-2.136718 17.648437h-66.824219zm162.625-5.738282-33.804688 158.96875h-46.675781l20.453125-168.964843c1.851563-15.277344 14.847656-26.796875 30.234375-26.796875 9.234375 0 17.863281 4.113281 23.671875 11.289062 5.8125 7.175782 8.042969 16.46875 6.121094 25.503906zm0 0" data-original="#000000" class="active-path" data-old_color="#574848" fill="#433737"/><path d="m207.148438 123.160156c3.074218 6.230469 8.390624 10.886719 14.96875 13.117188 2.738281.925781 5.558593 1.386718 8.371093 1.386718 3.9375 0 7.851563-.90625 11.488281-2.699218 12.855469-6.347656 18.148438-21.972656 11.800782-34.828125l-23.621094-47.839844c-3.074219-6.230469-8.390625-10.886719-14.96875-13.113281-6.578125-2.230469-13.628906-1.765625-19.859375 1.308594-12.855469 6.347656-18.148437 21.972656-11.800781 34.828124zm-5.085938-69.03125c5.335938-2.636718 11.820312-.433594 14.457031 4.902344l23.621094 47.839844c2.636719 5.335937.4375 11.820312-4.898437 14.457031-2.585938 1.277344-5.515626 1.46875-8.246094.542969-2.726563-.925782-4.9375-2.855469-6.210938-5.441406l-23.621094-47.839844c-2.636718-5.339844-.441406-11.824219 4.898438-14.460938zm0 0" data-original="#000000" class="active-path" data-old_color="#574848" fill="#433737"/></g> </svg>
