<?xml version="1.0"?>
<svg xmlns="http://www.w3.org/2000/svg" height="512px" viewBox="-20 -20 640 640" width="512px"><g><path d="m489.65625 133.242188c-3.136719-31.753907-27.332031-57.367188-58.84375-62.324219 3.335938-30.804688 16.996094-50.917969 29.1875-50.917969 5.523438 0 10-4.476562 10-10s-4.476562-10-10-10c-25 0-45.359375 29.820312-49.292969 70.6875-21.738281 2.945312-40.84375 15.894531-51.625 35-19.203125-2.175781-39.128906-3.835938-59.644531-4.734375-1.238281.210937-2.484375.417969-3.730469.628906-.316406.144531-.625.3125-.925781.496094-.761719.289063-1.484375.679687-2.148438 1.15625l-289.015624 239.066406c-.21875.179688-.304688.429688-.507813.628907-.554687.542968-1.046875 1.152343-1.460937 1.8125-.261719.394531-.496094.808593-.695313 1.238281-.285156.667969-.488281 1.371093-.609375 2.089843-.125.476563-.207031.960938-.2578125 1.453126 0 .167968-.0859375.316406-.0859375.484374v239.992188c0 5.523438 4.476562 10 10 10 .671875-.003906 1.34375-.074219 2-.210938l580-120c4.65625-.953124 7.996094-5.039062 8-9.789062v-240c0-37.9375-39.121094-72.261719-110.34375-96.757812zm-469.65625 224.898437 560-115.859375v99.570312l-560 115.867188zm400-268.140625c27.613281 0 50 22.386719 50 50s-22.386719 50-50 50-50-22.386719-50-50c.035156-27.601562 22.398438-49.964844 50-50zm0 120c33.21875-.039062 61.851562-23.382812 68.578125-55.90625 52.558594 18.894531 84.703125 43.167969 90.410156 67.996094l-531.601562 110 254.933593-210.972656c16.90625.8125 33.359376 2.164062 49.339844 3.875-4.597656 20.707031.457032 42.386718 13.75 58.917968 13.292969 16.535156 33.375 26.132813 54.589844 26.089844zm-400 367.71875v-99.570312l560-115.867188v99.570312zm0 0" data-original="#000000" class="active-path" data-old_color="#000000" fill="#675353"/></g> </svg>
